<svg viewBox="0 0 875 450" xmlns="http://www.w3.org/2000/svg" fill-rule="evenodd" clip-rule="evenodd" stroke-linejoin="round" stroke-miterlimit="2"><g fill-rule="nonzero"><path d="M443.637 222.857c27.667-20.167 103.417-82 108.75-156.75h-246.5c5.334 74.833 81.084 136.583 108.833 156.75-27.749 20.249-103.499 82.083-108.833 156.916h246.5c-5.333-74.833-81.083-136.667-108.75-156.916zm-81-107.167c-3.583-5.75-3.75-12.75-.417-18.667 3.334-6 9.584-9.749 16.417-9.749h101c6.834 0 13.084 3.749 16.417 9.749 3.333 5.917 3.166 12.917-.417 18.667-18.666 29.833-46.333 54.5-61.25 66.583-1.5 1.25-3.417 1.917-5.25 1.917-1.833 0-3.75-.667-5.25-1.917-14.917-12.083-42.666-36.75-61.25-66.583zm132.25 232.417c-3.5 6.416-10.166 10.416-17.5 10.416h-96.333c-7.333 0-14-4-17.5-10.416-3.5-6.417-3.167-14.25.833-20.417 9.334-14.417 20.667-27.5 31.417-38.5s20.916-19.833 28.083-25.667c3.084-2.5 7.5-2.5 10.5 0 14.334 11.584 41.084 35.417 59.75 64.167 3.917 6.167 4.25 14 .75 20.417zM290.167 422.917c0 4.583 3.75 8.333 8.333 8.333h261.333a8.305 8.305 0 008.334-8.333v-26.5h-278v26.5zM559.833 14.583H298.5a8.305 8.305 0 00-8.333 8.334v26.5h278v-26.5c0-4.667-3.667-8.334-8.334-8.334z"/></g><path d="M40.633 430.433c-7.816 0-12.283-.558-13.958-1.675C25.558 427.083 25 422.617 25 414.8V30.108c0-7.258.558-11.167 1.675-12.283 1.675-1.675 5.583-2.234 12.842-2.234h193.741c5.025 0 7.817 2.792 7.817 7.817V42.95c0 5.025-2.792 7.816-7.817 7.816h-167.5v147.4h159.125c5.025 0 7.817 2.792 7.817 7.817v20.1c0 5.025-2.792 7.817-7.817 7.817H65.758v160.8h174.2c5.025 0 7.817 2.792 7.817 7.817v20.1c0 5.025-2.792 7.816-7.817 7.816H40.633z" fill-rule="nonzero"/><path d="M465.525 51.325v370.733c0 5.025-2.791 7.817-7.816 7.817h-25.684c-5.025 0-7.816-2.792-7.816-7.817V51.325H309.192c-5.025 0-7.817-2.792-7.817-7.817V24.525c0-5.025 2.792-7.817 7.817-7.817h272.467c5.025 0 7.816 2.792 7.816 7.817v18.983c0 5.025-2.791 7.817-7.816 7.817H465.525z" fill="none"/><path d="M624.094 424.292c-6.142-1.675-8.375-5.025-7.259-10.05l2.234-25.684c.558-2.791 1.675-5.025 3.35-6.141 1.675-1.117 3.908-1.117 6.141.558 12.842 7.258 26.242 12.283 39.084 15.075 13.4 3.35 28.475 5.025 45.783 5.025 27.359 0 49.134-7.258 66.442-22.333 17.308-15.075 26.242-35.734 26.242-63.092 0-10.608-4.467-21.775-12.842-32.383-8.375-10.609-19.542-21.217-34.617-30.709-12.841-8.375-27.917-16.75-44.108-25.683-16.192-8.933-31.825-18.983-46.9-29.033-15.075-11.167-27.359-22.892-37.409-36.292-10.05-12.842-15.075-28.475-15.075-45.783 0-17.867 3.909-33.5 11.167-47.459 7.258-13.4 17.308-24.567 30.15-34.058 12.283-8.934 26.242-15.634 42.433-20.659 16.192-5.025 32.384-7.258 49.134-7.258 14.517 0 27.358.558 38.525 2.233 11.167 1.675 23.45 5.025 36.292 8.934 5.583 1.675 7.816 5.025 6.7 10.05l-4.467 21.775c-1.117 6.141-4.467 7.816-9.492 5.025-10.608-5.025-20.658-8.375-30.15-10.05-10.05-1.675-22.891-2.234-37.966-2.234a136.585 136.585 0 00-34.617 4.467c-11.167 2.792-20.659 7.258-28.475 13.4-8.375 6.142-14.517 13.4-19.542 22.334-5.025 8.933-7.258 19.541-7.258 31.825 0 9.491 3.35 18.983 10.05 27.358 6.141 8.375 14.516 16.75 24.008 24.008 9.492 7.259 19.542 13.959 30.708 20.1 10.609 6.142 20.659 12.284 29.592 17.309 12.284 7.258 24.009 14.516 35.734 21.775 11.725 7.258 21.775 15.633 30.708 25.125 8.933 9.491 16.192 19.541 21.775 30.708 5.583 11.167 8.375 24.008 8.375 38.525 0 18.425-3.908 35.175-11.167 49.692-7.816 14.516-17.866 26.8-30.708 36.85-12.842 10.05-27.358 17.866-43.55 22.891-16.75 5.584-34.059 8.375-51.925 8.375-16.192 0-30.709-1.116-43.55-3.35-12.842-2.233-27.359-6.141-43.55-11.166z" fill-rule="nonzero"/></svg>